<svg width="38" height="37" viewBox="0 0 38 37" fill="none" xmlns="http://www.w3.org/2000/svg">
<path fill-rule="evenodd" clip-rule="evenodd" d="M18.7295 0.196777C8.38144 0.196777 0 8.57822 0 18.9263C0 27.2141 5.36131 34.2142 12.8063 36.6959C13.7428 36.8597 14.0939 36.2979 14.0939 35.8062C14.0939 35.3614 14.0705 33.8864 14.0705 32.3178C9.36474 33.1841 8.14732 31.1707 7.77274 30.1171C7.56203 29.5787 6.64897 27.9164 5.85296 27.4716C5.19743 27.1204 4.26096 26.2542 5.82955 26.2308C7.3045 26.2073 8.35803 27.5886 8.70921 28.1505C10.3949 30.9834 13.0872 30.1874 14.1642 29.6957C14.3281 28.4783 14.8197 27.6589 15.3582 27.1906C11.1909 26.7224 6.83626 25.107 6.83626 17.943C6.83626 15.9061 7.56203 14.2205 8.75603 12.9094C8.56874 12.4412 7.91321 10.5214 8.94333 7.9461C8.94333 7.9461 10.5119 7.45445 14.0939 9.86587C15.5923 9.44446 17.1843 9.23375 18.7763 9.23375C20.3683 9.23375 21.9603 9.44446 23.4587 9.86587C27.0407 7.43104 28.6093 7.9461 28.6093 7.9461C29.6394 10.5214 28.9839 12.4412 28.7966 12.9094C29.9906 14.2205 30.7164 15.8827 30.7164 17.943C30.7164 25.1304 26.3383 26.7224 22.171 27.1906C22.85 27.7759 23.4353 28.8997 23.4353 30.6556C23.4353 33.1607 23.4119 35.1741 23.4119 35.8062C23.4119 36.2979 23.763 36.8832 24.6995 36.6959C28.4176 35.4405 31.6484 33.0509 33.9373 29.8633C36.2262 26.6757 37.4578 22.8505 37.459 18.9263C37.459 8.57822 29.0775 0.196777 18.7295 0.196777Z" fill="#FF5170" fill-opacity="0.99"/>
</svg>
