<svg width="33" height="32" viewBox="0 0 33 32" fill="none" xmlns="http://www.w3.org/2000/svg">
<path fill-rule="evenodd" clip-rule="evenodd" d="M0.719849 2.66992C0.719849 1.96182 1.00114 1.28271 1.50185 0.782005C2.00256 0.281298 2.68166 3.55938e-06 3.38977 3.55938e-06H30.0047C30.3556 -0.000569575 30.7032 0.0680776 31.0276 0.202015C31.3519 0.335952 31.6467 0.532549 31.8949 0.78055C32.1432 1.02855 32.3401 1.32309 32.4744 1.64729C32.6087 1.9715 32.6777 2.31901 32.6775 2.66992V29.2849C32.6779 29.6358 32.6091 29.9835 32.475 30.3078C32.3409 30.6322 32.1442 30.9269 31.896 31.1752C31.6479 31.4234 31.3533 31.6203 31.029 31.7546C30.7047 31.8889 30.3571 31.9579 30.0062 31.9577H3.38977C3.03903 31.9577 2.69172 31.8886 2.3677 31.7543C2.04367 31.62 1.74928 31.4232 1.50134 31.1752C1.25339 30.9271 1.05676 30.6326 0.922667 30.3085C0.788577 29.9844 0.719658 29.637 0.719849 29.2863V2.66992ZM13.3693 12.1846H17.6966V14.3577C18.3213 13.1085 19.9191 11.9841 22.3203 11.9841C26.9237 11.9841 28.0146 14.4725 28.0146 19.0381V27.4952H23.3561V20.0781C23.3561 17.4779 22.7314 16.0108 21.1452 16.0108C18.9444 16.0108 18.0293 17.5927 18.0293 20.0781V27.4952H13.3693V12.1846ZM5.37986 27.2962H10.0399V11.9841H5.37986V27.2948V27.2962ZM10.7066 6.99002C10.7154 7.38901 10.6444 7.78575 10.4978 8.15693C10.3512 8.52812 10.1319 8.86628 9.85282 9.15157C9.57374 9.43686 9.24049 9.66353 8.87262 9.81828C8.50476 9.97304 8.10968 10.0528 7.71059 10.0528C7.3115 10.0528 6.91643 9.97304 6.54856 9.81828C6.18069 9.66353 5.84744 9.43686 5.56836 9.15157C5.28929 8.86628 5.07001 8.52812 4.92339 8.15693C4.77677 7.78575 4.70577 7.38901 4.71456 6.99002C4.7318 6.20684 5.05503 5.46156 5.61502 4.91377C6.175 4.36598 6.92723 4.05924 7.71059 4.05924C8.49396 4.05924 9.24618 4.36598 9.80616 4.91377C10.3662 5.46156 10.6894 6.20684 10.7066 6.99002Z" fill="#FF5170" fill-opacity="0.99"/>
</svg>
