<svg width="64" height="76" viewBox="0 0 64 76" fill="none" xmlns="http://www.w3.org/2000/svg">
<path d="M18.3066 49.9796C22.828 49.2558 18.3066 31.5699 16.3835 19.3635L27.1531 7.35726L36 10.5C33.8204 7.29828 43.5074 0.0590205 24.9999 2.5C-2.3088 6.10179 5.99846 29.569 1.38289 44.8768C-0.30938 50.4894 3.30604 52.3809 18.3066 49.9796Z" fill="#FF92A6" stroke="#FF92A6"/>
<circle cx="29" cy="28" r="25" fill="#FF5170"/>
<path d="M40.5 73C34.8321 71.8028 43.7157 52.3076 46.1265 32.1168L32.6259 12.257L9 12.2571C11.7323 6.96112 20.0897 -3.13367 38.8941 2.82374C58.9914 9.19081 56.7341 41.5507 62.52 66.8717C64.6414 76.1555 59.3043 76.972 40.5 73Z" fill="#FF92A6" stroke="#FF92A6"/>
<circle cx="10" cy="30" r="3" fill="white"/>
<circle cx="33" cy="30" r="3" fill="white"/>
<path d="M53.5 31.5C28.3 36.7 37 17 10 11.9998C14 5.99998 25.7 0.799972 38.5 3.99997C51.3 7.19997 55 23.5 53.5 31.5Z" fill="#FF92A6" stroke="#FF92A6"/>
</svg>
