<svg width="40" height="40" viewBox="0 0 40 40" fill="none" xmlns="http://www.w3.org/2000/svg">
<path d="M20.7142 40C15.2204 40 9.9517 37.8176 6.06704 33.933C2.18238 30.0483 0 24.7796 0 19.2858C0 10.893 4.8214 3.36806 12.2865 0.118972C12.5496 0.00430694 12.8412 -0.028454 13.1232 0.0249582C13.4051 0.0783703 13.6645 0.215479 13.8674 0.418418C14.0704 0.621356 14.2075 0.880716 14.2609 1.1627C14.3143 1.44469 14.2815 1.73622 14.1669 1.99932C13.3097 3.96716 12.8571 6.48769 12.8571 9.28589C12.8571 19.1323 20.8677 27.1429 30.7141 27.1429C33.5123 27.1429 36.0328 26.6903 38.0007 25.8331C38.2638 25.7184 38.5553 25.6857 38.8373 25.7391C39.1193 25.7925 39.3786 25.9296 39.5816 26.1326C39.7845 26.3355 39.9216 26.5949 39.975 26.8768C40.0285 27.1588 39.9957 27.4504 39.881 27.7135C36.6319 35.1786 29.107 40 20.7142 40Z" fill="#FF5170"/>
</svg>
