<svg width="51" height="51" viewBox="0 0 51 51" fill="none" xmlns="http://www.w3.org/2000/svg">
<g clip-path="url(#clip0_260_2)">
<path d="M25.5 38.25C28.8815 38.25 32.1245 36.9067 34.5156 34.5156C36.9067 32.1245 38.25 28.8815 38.25 25.5C38.25 22.1185 36.9067 18.8755 34.5156 16.4844C32.1245 14.0933 28.8815 12.75 25.5 12.75C22.1185 12.75 18.8755 14.0933 16.4844 16.4844C14.0933 18.8755 12.75 22.1185 12.75 25.5C12.75 28.8815 14.0933 32.1245 16.4844 34.5156C18.8755 36.9067 22.1185 38.25 25.5 38.25ZM25.5 0C25.9227 0 26.3281 0.167912 26.627 0.466799C26.9258 0.765685 27.0938 1.17106 27.0938 1.59375V7.96875C27.0938 8.39144 26.9258 8.79681 26.627 9.0957C26.3281 9.39459 25.9227 9.5625 25.5 9.5625C25.0773 9.5625 24.6719 9.39459 24.373 9.0957C24.0742 8.79681 23.9062 8.39144 23.9062 7.96875V1.59375C23.9062 1.17106 24.0742 0.765685 24.373 0.466799C24.6719 0.167912 25.0773 0 25.5 0ZM25.5 41.4375C25.9227 41.4375 26.3281 41.6054 26.627 41.9043C26.9258 42.2032 27.0938 42.6086 27.0938 43.0312V49.4062C27.0938 49.8289 26.9258 50.2343 26.627 50.5332C26.3281 50.8321 25.9227 51 25.5 51C25.0773 51 24.6719 50.8321 24.373 50.5332C24.0742 50.2343 23.9062 49.8289 23.9062 49.4062V43.0312C23.9062 42.6086 24.0742 42.2032 24.373 41.9043C24.6719 41.6054 25.0773 41.4375 25.5 41.4375ZM51 25.5C51 25.9227 50.8321 26.3281 50.5332 26.627C50.2343 26.9258 49.8289 27.0938 49.4062 27.0938H43.0312C42.6086 27.0938 42.2032 26.9258 41.9043 26.627C41.6054 26.3281 41.4375 25.9227 41.4375 25.5C41.4375 25.0773 41.6054 24.6719 41.9043 24.373C42.2032 24.0742 42.6086 23.9062 43.0312 23.9062H49.4062C49.8289 23.9062 50.2343 24.0742 50.5332 24.373C50.8321 24.6719 51 25.0773 51 25.5ZM9.5625 25.5C9.5625 25.9227 9.39459 26.3281 9.0957 26.627C8.79681 26.9258 8.39144 27.0938 7.96875 27.0938H1.59375C1.17106 27.0938 0.765685 26.9258 0.466799 26.627C0.167912 26.3281 0 25.9227 0 25.5C0 25.0773 0.167912 24.6719 0.466799 24.373C0.765685 24.0742 1.17106 23.9062 1.59375 23.9062H7.96875C8.39144 23.9062 8.79681 24.0742 9.0957 24.373C9.39459 24.6719 9.5625 25.0773 9.5625 25.5ZM43.5317 7.46831C43.8305 7.76718 43.9983 8.17249 43.9983 8.59509C43.9983 9.0177 43.8305 9.423 43.5317 9.72188L39.0246 14.2322C38.8764 14.3802 38.7005 14.4975 38.507 14.5775C38.3135 14.6575 38.1061 14.6986 37.8967 14.6984C37.4737 14.6982 37.0682 14.5299 36.7694 14.2306C36.6214 14.0824 36.5041 13.9065 36.4241 13.713C36.3441 13.5195 36.303 13.3121 36.3031 13.1027C36.3034 12.6798 36.4717 12.2743 36.771 11.9754L41.2781 7.46831C41.577 7.16953 41.9823 7.00168 42.4049 7.00168C42.8275 7.00168 43.2328 7.16953 43.5317 7.46831ZM14.229 36.771C14.5278 37.0699 14.6956 37.4752 14.6956 37.8978C14.6956 38.3204 14.5278 38.7257 14.229 39.0246L9.72188 43.5317C9.42129 43.822 9.01871 43.9826 8.60083 43.979C8.18295 43.9754 7.78322 43.8078 7.48773 43.5123C7.19223 43.2168 7.02462 42.817 7.02099 42.3992C7.01736 41.9813 7.178 41.5787 7.46831 41.2781L11.9754 36.771C12.2743 36.4722 12.6796 36.3044 13.1022 36.3044C13.5248 36.3044 13.9301 36.4722 14.229 36.771ZM43.5317 43.5317C43.2328 43.8305 42.8275 43.9983 42.4049 43.9983C41.9823 43.9983 41.577 43.8305 41.2781 43.5317L36.771 39.0246C36.4807 38.724 36.32 38.3214 36.3237 37.9035C36.3273 37.4856 36.4949 37.0859 36.7904 36.7904C37.0859 36.4949 37.4856 36.3273 37.9035 36.3237C38.3214 36.32 38.724 36.4807 39.0246 36.771L43.5317 41.2781C43.8305 41.577 43.9983 41.9823 43.9983 42.4049C43.9983 42.8275 43.8305 43.2328 43.5317 43.5317ZM14.229 14.2322C13.9301 14.531 13.5248 14.6988 13.1022 14.6988C12.6796 14.6988 12.2743 14.531 11.9754 14.2322L7.46831 9.72188C7.31609 9.57486 7.19468 9.39899 7.11115 9.20455C7.02762 9.01011 6.98366 8.80097 6.98182 8.58936C6.97998 8.37774 7.02031 8.16788 7.10044 7.97201C7.18058 7.77614 7.29892 7.5982 7.44856 7.44856C7.5982 7.29892 7.77614 7.18058 7.97201 7.10044C8.16788 7.02031 8.37774 6.97998 8.58936 6.98182C8.80097 6.98366 9.01011 7.02762 9.20455 7.11115C9.39899 7.19468 9.57486 7.31609 9.72188 7.46831L14.229 11.9754C14.3774 12.1235 14.4952 12.2994 14.5755 12.493C14.6559 12.6866 14.6972 12.8942 14.6972 13.1038C14.6972 13.3134 14.6559 13.521 14.5755 13.7146C14.4952 13.9083 14.3774 14.0841 14.229 14.2322Z" fill="#FF5170"/>
</g>
<defs>
<clipPath id="clip0_260_2">
<rect width="51" height="51" fill="white"/>
</clipPath>
</defs>
</svg>
